<svg id="Layer_1" xmlns="http://www.w3.org/2000/svg" viewBox="0 0 307.46 173.85"><defs><style>.cls-1{fill:#f26968;}.cls-2{fill:#6cbf84;}</style></defs><path class="cls-1" d="M54.33,131H23.08V19.92H54.33Z"/><path class="cls-2" d="M61.92,86.89a47.11,47.11,0,0,1,3.47-18.11A44.08,44.08,0,0,1,89,44.7a43.28,43.28,0,0,1,17.25-3.5,45.49,45.49,0,0,1,17.21,3.28,42.28,42.28,0,0,1,14.14,9.38A44.39,44.39,0,0,1,147,68.33a48.53,48.53,0,0,1,3.46,18.56h0c0,33.19-44.29,55.7-44.29,55.7h0S61.92,120.08,61.92,86.89Zm44.29-14.37a15.43,15.43,0,0,0-5.57,1,12.54,12.54,0,0,0-4.32,2.72,13.48,13.48,0,0,0-3.06,4.5,15.68,15.68,0,0,0-1.15,6.17,14.26,14.26,0,0,0,1.15,5.84,13.76,13.76,0,0,0,7.59,7.49,13.66,13.66,0,0,0,5.36,1,15.18,15.18,0,0,0,5.51-1,13.75,13.75,0,0,0,4.47-2.79A13.31,13.31,0,0,0,119.28,93a16.46,16.46,0,0,0,0-12.24,13.64,13.64,0,0,0-3.11-4.52,13,13,0,0,0-4.4-2.74A15.41,15.41,0,0,0,106.21,72.52Z"/><path class="cls-1" d="M244.56,153.93H213.31V129.79l-.95.38a39.07,39.07,0,0,1-5.76,1.77,28.91,28.91,0,0,1-6.33.71,44.3,44.3,0,0,1-17.18-3.37A43.22,43.22,0,0,1,169,119.82a44.5,44.5,0,0,1-9.52-14.51A48.29,48.29,0,0,1,156,86.89a48.47,48.47,0,0,1,3.46-18.49A43.73,43.73,0,0,1,169,53.94a42.82,42.82,0,0,1,14.15-9.32,45.26,45.26,0,0,1,17.13-3.28,34.81,34.81,0,0,1,8.67,1.1,46,46,0,0,1,7.95,2.86,47.9,47.9,0,0,1,7.34,4.3c.5.35,1,.72,1.49,1.09l5.41-6.48h13.43Zm-44.3-81.41a15.41,15.41,0,0,0-5.56,1,12.75,12.75,0,0,0-4.36,2.71,13.08,13.08,0,0,0-3,4.44,15.86,15.86,0,0,0-1.15,6.24,16.64,16.64,0,0,0,1.17,6.49,11.83,11.83,0,0,0,7.26,6.93,16.36,16.36,0,0,0,5.66,1,12.28,12.28,0,0,0,5.16-1.09,15.62,15.62,0,0,0,7.94-8,12.88,12.88,0,0,0,0-10.64,15.57,15.57,0,0,0-3.25-4.74,15.87,15.87,0,0,0-4.68-3.22A12.39,12.39,0,0,0,200.26,72.52Z"/><path class="cls-1" d="M284.38,131H253.14V19.92h31.24Z"/></svg>
